grf
version=1
nRows=17
nColumns=37
inDegrees=no
endheader
time	ground_force_1_vx	ground_force_1_vy	ground_force_1_vz	ground_force_1_px	ground_force_1_py	ground_force_1_pz	ground_moment_1_mx	ground_moment_1_my	ground_moment_1_mz	ground_force_2_vx	ground_force_2_vy	ground_force_2_vz	ground_force_2_px	ground_force_2_py	ground_force_2_pz	ground_moment_2_mx	ground_moment_2_my	ground_moment_2_mz	ground_force_3_vx	ground_force_3_vy	ground_force_3_vz	ground_force_3_px	ground_force_3_py	ground_force_3_pz	ground_moment_3_mx	ground_moment_3_my	ground_moment_3_mz	ground_force_4_vx	ground_force_4_vy	ground_force_4_vz	ground_force_4_px	ground_force_4_py	ground_force_4_pz	ground_moment_4_mx	ground_moment_4_my	ground_moment_4_mz
      0.00000000	      0.00000000	     -0.00000000	      0.00000000	      0.00000000	      0.00000000	      0.00000000	      0.00000000	      0.00000000	      0.00000000	     -2.44522619	     39.49659348	   -354.30331421	   -395.88058376	  -1071.97814719	      0.00000000	      0.00000000	      0.00000000	   2011.77937852	     -0.39121017	    -54.93608853	   -407.64868164	   -397.03753957	   -627.43400626	      0.00000000	      0.00000000	     -0.00000000	   -759.93325077	    -35.13680889	     16.16186831	     75.11994171	    609.72872882	   -561.40755129	      0.00000000	      0.00000000	     -0.00000000	   -211.17481407
      0.01000000	      0.00000000	     -0.00000000	      0.00000000	      0.00000000	      0.00000000	      0.00000000	      0.00000000	      0.00000000	      0.00000000	     -3.90899539	     39.68321609	   -353.25994873	   -394.34914305	  -1073.68361078	      0.00000000	      0.00000000	      0.00000000	   1986.16674297	      0.83468406	    -54.01271827	   -405.15872192	   -399.02130693	   -628.26037694	      0.00000000	      0.00000000	     -0.00000000	   -661.60241662	    -35.21009685	     16.25155185	     76.06275940	    606.51970964	   -562.22454349	      0.00000000	      0.00000000	     -0.00000000	    -59.65547010
      0.02000000	      0.00000000	     -0.00000000	      0.00000000	      0.00000000	      0.00000000	      0.00000000	      0.00000000	      0.00000000	      0.00000000	     -4.39130783	     40.35609818	   -351.47900391	   -393.34296896	  -1073.17759496	      0.00000000	      0.00000000	      0.00000000	   1868.31686509	      1.88287534	    -52.97314851	   -403.33413696	   -401.43090215	   -629.21143675	      0.00000000	      0.00000000	     -0.00000000	   -803.87223381	    -35.33609630	     16.19106602	     74.81758118	    609.84512156	   -566.49755757	      0.00000000	      0.00000000	      0.00000000	     20.20938429
      0.03000000	      0.00000000	     -0.00000000	      0.00000000	      0.00000000	      0.00000000	      0.00000000	      0.00000000	      0.00000000	      0.00000000	     -4.60262108	     40.85481262	   -352.74850464	   -392.30344542	  -1075.40999846	      0.00000000	      0.00000000	      0.00000000	   1776.69889263	      3.00305219	    -52.28643825	   -402.85635376	   -402.98588480	   -629.48692834	      0.00000000	      0.00000000	     -0.00000000	   -932.67606402	    -35.28303385	     16.39123462	     76.02587891	    604.33607664	   -562.53655451	      0.00000000	      0.00000000	     -0.00000000	   -129.83903976
      0.04000000	      0.00000000	     -0.00000000	      0.00000000	      0.00000000	      0.00000000	      0.00000000	      0.00000000	      0.00000000	      0.00000000	     -5.12125301	     41.58767700	   -354.08468628	   -391.53892969	  -1074.59145978	      0.00000000	      0.00000000	      0.00000000	   1923.85537479	      4.00854088	    -51.73707997	   -402.79058838	   -404.14212374	   -630.56375011	      0.00000000	      0.00000000	     -0.00000000	  -1025.41983842	    -35.40873577	     16.12417912	     75.66317749	    607.26767104	   -564.80587365	      0.00000000	      0.00000000	     -0.00000000	     -9.02175888
      0.05000000	      0.00000000	     -0.00000000	      0.00000000	      0.00000000	      0.00000000	      0.00000000	      0.00000000	      0.00000000	      0.00000000	     -5.19358253	     41.41457367	   -355.07904053	   -390.79476590	  -1075.80288778	      0.00000000	      0.00000000	     -0.00000000	   2056.15525796	      4.82639388	    -51.40322155	   -402.99710083	   -406.88100922	   -631.07612272	      0.00000000	      0.00000000	     -0.00000000	  -1068.62278915	    -35.45942930	     15.99516797	     76.09016418	    604.24024655	   -561.80044348	      0.00000000	      0.00000000	      0.00000000	     64.89676933
      0.06000000	      0.00000000	     -0.00000000	      0.00000000	      0.00000000	      0.00000000	      0.00000000	      0.00000000	      0.00000000	      0.00000000	     -4.92355108	     41.25041962	   -355.16461182	   -390.99242982	  -1074.63970066	      0.00000000	      0.00000000	      0.00000000	   2087.80894112	      5.40678912	    -51.15274095	   -404.65774536	   -407.83463361	   -631.70881403	      0.00000000	      0.00000000	     -0.00000000	  -1280.38454836	    -35.15717935	     16.48163531	     76.65736389	    600.30725648	   -560.81179464	      0.00000000	      0.00000000	     -0.00000000	   -130.00240213
      0.07000000	      0.00000000	     -0.00000000	      0.00000000	      0.00000000	      0.00000000	      0.00000000	      0.00000000	      0.00000000	      0.00000000	     -4.56868267	     41.17824554	   -356.92221069	   -390.38727654	  -1075.40902775	      0.00000000	      0.00000000	      0.00000000	   2222.54053194	      5.67553313	    -50.92589619	   -405.92984009	   -409.23008901	   -632.34611795	      0.00000000	      0.00000000	     -0.00000000	  -1355.26205695	    -35.35331584	     16.19453739	     75.30648041	    608.05639618	   -566.45067236	      0.00000000	      0.00000000	      0.00000000	      1.84295167
      0.08000000	      0.00000000	     -0.00000000	      0.00000000	      0.00000000	      0.00000000	      0.00000000	      0.00000000	      0.00000000	      0.00000000	     -4.88933372	     40.71387482	   -355.51568604	   -390.36184336	  -1075.68782470	      0.00000000	      0.00000000	      0.00000000	   2210.19884015	      6.17394484	    -50.37901360	   -408.09094238	   -410.41143108	   -632.76924302	      0.00000000	      0.00000000	     -0.00000000	  -1371.67777485	    -35.17585993	     16.37447665	     75.38141632	    606.53057742	   -562.92331433	      0.00000000	     -0.00000000	     -0.00000000	   -159.85046192
      0.09000000	      0.00000000	     -0.00000000	      0.00000000	      0.00000000	      0.00000000	      0.00000000	      0.00000000	      0.00000000	      0.00000000	     -5.24720573	     40.59021759	   -353.39553833	   -390.23792941	  -1074.47472937	      0.00000000	      0.00000000	      0.00000000	   2182.69983285	      6.70755380	    -49.77657377	   -410.95147705	   -411.77480738	   -632.70571510	      0.00000000	      0.00000000	     -0.00000000	  -1445.66989025	    -35.37108851	     16.24931263	     75.66450500	    605.85383208	   -563.12830120	      0.00000000	      0.00000000	     -0.00000000	    -40.98942141
      0.10000000	      0.00000000	     -0.00000000	      0.00000000	      0.00000000	      0.00000000	      0.00000000	      0.00000000	      0.00000000	      0.00000000	     -4.88821411	     40.60763931	   -354.66882324	   -389.08905239	  -1076.45831881	      0.00000000	      0.00000000	      0.00000000	   2233.66900295	      6.60027549	    -49.38909588	   -413.18679810	   -412.53306907	   -633.10696057	      0.00000000	      0.00000000	     -0.00000000	  -1517.97805907	    -35.33540202	     16.21364712	     75.66745758	    605.04507091	   -565.21846242	      0.00000000	      0.00000000	     -0.00000000	    -41.59329062
      0.11000000	      0.00000000	     -0.00000000	      0.00000000	      0.00000000	      0.00000000	      0.00000000	      0.00000000	      0.00000000	      0.00000000	     -5.01392508	     41.01762009	   -354.02600098	   -389.30730875	  -1076.57835252	      0.00000000	      0.00000000	     -0.00000000	   2193.00051006	      6.40467020	    -49.54847010	   -414.72326660	   -413.82654935	   -633.53385891	      0.00000000	      0.00000000	     -0.00000000	  -1555.14300701	    -35.31801464	     16.17635463	     75.66381073	    605.82068635	   -564.66410170	      0.00000000	      0.00000000	      0.00000000	     82.74213854
      0.12000000	      0.00000000	     -0.00000000	      0.00000000	      0.00000000	      0.00000000	      0.00000000	      0.00000000	      0.00000000	      0.00000000	     -4.94231319	     41.23192978	   -353.18093872	   -389.54421127	  -1076.11493850	      0.00000000	     -0.00000000	      0.00000000	   2262.94471666	      6.38717220	    -49.33679637	   -415.28125000	   -414.99275447	   -634.37279828	      0.00000000	      0.00000000	     -0.00000000	  -1738.87041095	    -35.03199627	     16.17657395	     76.50756836	    602.16789457	   -560.97490272	      0.00000000	      0.00000000	     -0.00000000	    -66.91341374
      0.13000000	      0.00000000	     -0.00000000	      0.00000000	      0.00000000	      0.00000000	      0.00000000	      0.00000000	      0.00000000	      0.00000000	     -4.85302734	     41.74877930	   -351.76672363	   -389.35684236	  -1077.10937049	      0.00000000	      0.00000000	      0.00000000	   2173.37261807	      6.86621043	    -49.46014464	   -416.60772705	   -415.00941601	   -634.12133484	      0.00000000	      0.00000000	     -0.00000000	  -1691.94437197	    -35.30007030	     16.19423412	     76.64771271	    602.12574866	   -561.13561974	      0.00000000	      0.00000000	     -0.00000000	    -18.77498710
      0.14000000	      0.00000000	     -0.00000000	      0.00000000	      0.00000000	      0.00000000	      0.00000000	      0.00000000	      0.00000000	      0.00000000	     -4.28160286	     41.62390137	   -349.78903198	   -390.07496933	  -1076.23913802	      0.00000000	      0.00000000	      0.00000000	   2192.47819037	      6.81320994	    -49.86687911	   -418.49343872	   -415.83277600	   -634.38992153	      0.00000000	      0.00000000	     -0.00000000	  -1665.40472150	    -35.40738919	     16.10456776	     75.87158203	    605.84632648	   -564.84521728	      0.00000000	      0.00000000	      0.00000000	     96.83312079
      0.15000000	      0.00000000	     -0.00000000	      0.00000000	      0.00000000	      0.00000000	      0.00000000	      0.00000000	      0.00000000	      0.00000000	     -4.53155947	     41.40932083	   -347.74496460	   -390.17674721	  -1077.14334316	      0.00000000	     -0.00000000	      0.00000000	   2106.94498176	      7.15022702	    -49.63608232	   -419.39926147	   -416.25714100	   -633.64681716	      0.00000000	      0.00000000	     -0.00000000	  -1704.15080722	    -35.15616084	     16.28348467	     75.17953491	    604.96201932	   -564.95265224	      0.00000000	      0.00000000	      0.00000000	     15.35691659
      0.16000000	      0.00000000	     -0.00000000	      0.00000000	      0.00000000	      0.00000000	      0.00000000	      0.00000000	      0.00000000	      0.00000000	     -4.35419178	     41.19535446	   -348.81094360	   -389.26090827	  -1077.66846325	      0.00000000	      0.00000000	      0.00000000	   2194.31652736	      7.39826099	    -49.95496052	   -417.85876465	   -416.31983980	   -634.80643335	      0.00000000	      0.00000000	     -0.00000000	  -1727.24288427	    -35.37160351	     16.17737698	     76.15661621	    604.38550173	   -562.00828424	      0.00000000	      0.00000000	     -0.00000000	    -65.08197713
